<?xml version="1.0" encoding="utf-8"?>
<!-- Generator: Adobe Illustrator 19.1.0, SVG Export Plug-In . SVG Version: 6.00 Build 0)  -->
<svg version="1.1" id="Layer_1" xmlns="http://www.w3.org/2000/svg" xmlns:xlink="http://www.w3.org/1999/xlink" x="0px" y="0px"
	 viewBox="0 0 273 108" style="enable-background:new 0 0 273 108;" xml:space="preserve">
<style type="text/css">
	.st0{fill:none;stroke:#010101;stroke-width:2.199;stroke-linecap:square;stroke-linejoin:round;stroke-miterlimit:10;}
	.st1{fill:none;}
</style>
<g>
	<path d="M114.8,25.3c0.7,0,1.4-0.2,1.9-0.6c0.5-0.4,0.8-1,0.8-1.6h1c0,0.6-0.2,1.1-0.5,1.6s-0.8,0.9-1.3,1.1
		c-0.6,0.3-1.2,0.4-1.8,0.4c-1.3,0-2.2-0.4-3-1.3c-0.7-0.9-1.1-2-1.1-3.5V21c0-0.9,0.2-1.8,0.5-2.5c0.3-0.7,0.8-1.3,1.4-1.7
		c0.6-0.4,1.3-0.6,2.2-0.6c1,0,1.9,0.3,2.6,0.9c0.7,0.6,1,1.4,1.1,2.5h-1c0-0.7-0.3-1.4-0.8-1.8c-0.5-0.5-1.1-0.7-1.9-0.7
		c-1,0-1.7,0.3-2.2,1s-0.8,1.7-0.8,2.9v0.3c0,1.2,0.3,2.2,0.8,2.9S113.9,25.3,114.8,25.3z"/>
	<path d="M120.5,13.7c0-0.2,0.1-0.4,0.2-0.5c0.1-0.1,0.3-0.2,0.5-0.2c0.2,0,0.4,0.1,0.5,0.2c0.1,0.1,0.2,0.3,0.2,0.5
		s-0.1,0.4-0.2,0.5c-0.1,0.1-0.3,0.2-0.5,0.2c-0.2,0-0.4-0.1-0.5-0.2C120.6,14,120.5,13.9,120.5,13.7z M121.8,26h-1.1v-9.6h1.1V26z"
		/>
	<path d="M127.6,24.5l2.9-8.1h1.1l-3.6,9.6h-0.9l-3.6-9.6h1.1L127.6,24.5z"/>
	<path d="M133.3,13.7c0-0.2,0.1-0.4,0.2-0.5c0.1-0.1,0.3-0.2,0.5-0.2c0.2,0,0.4,0.1,0.5,0.2c0.1,0.1,0.2,0.3,0.2,0.5
		s-0.1,0.4-0.2,0.5c-0.1,0.1-0.3,0.2-0.5,0.2c-0.2,0-0.4-0.1-0.5-0.2C133.4,14,133.3,13.9,133.3,13.7z M134.6,26h-1.1v-9.6h1.1V26z"
		/>
	<path d="M138.6,26h-1.1V12.4h1.1V26z"/>
	<path d="M151.6,23.6c0-0.5-0.2-0.9-0.6-1.3c-0.4-0.3-1.1-0.6-1.9-0.7s-1.5-0.4-2-0.6c-0.5-0.2-0.8-0.5-1-0.9
		c-0.2-0.3-0.3-0.7-0.3-1.2c0-0.8,0.3-1.4,0.9-1.9c0.6-0.5,1.4-0.7,2.4-0.7c1.1,0,1.9,0.3,2.6,0.8c0.6,0.5,1,1.2,1,2.1h-1.1
		c0-0.6-0.2-1-0.7-1.4c-0.5-0.4-1.1-0.6-1.8-0.6c-0.7,0-1.3,0.2-1.7,0.5c-0.4,0.3-0.6,0.7-0.6,1.2c0,0.5,0.2,0.8,0.5,1.1
		c0.3,0.3,1,0.5,1.9,0.7c0.9,0.2,1.6,0.5,2.1,0.7c0.5,0.2,0.8,0.5,1,0.9c0.2,0.3,0.3,0.8,0.3,1.3c0,0.8-0.3,1.5-1,1.9
		c-0.7,0.5-1.5,0.7-2.5,0.7c-1.1,0-2-0.3-2.7-0.8s-1-1.2-1-2h1.1c0,0.6,0.3,1.1,0.8,1.4s1.1,0.5,1.9,0.5c0.7,0,1.3-0.2,1.8-0.5
		C151.4,24.5,151.6,24.1,151.6,23.6z"/>
	<path d="M154.5,21.1c0-0.9,0.2-1.7,0.5-2.5c0.4-0.7,0.9-1.3,1.5-1.7c0.7-0.4,1.4-0.6,2.2-0.6c1.3,0,2.3,0.4,3.1,1.3
		c0.8,0.9,1.2,2.1,1.2,3.5v0.2c0,0.9-0.2,1.8-0.5,2.5c-0.4,0.7-0.9,1.3-1.5,1.7c-0.6,0.4-1.4,0.6-2.2,0.6c-1.3,0-2.3-0.4-3.1-1.3
		c-0.8-0.9-1.2-2.1-1.2-3.5V21.1z M155.5,21.4c0,1.1,0.3,2.1,0.9,2.8c0.6,0.7,1.4,1.1,2.3,1.1c1,0,1.7-0.4,2.3-1.1s0.9-1.7,0.9-2.9
		v-0.2c0-0.7-0.1-1.4-0.4-2c-0.3-0.6-0.7-1.1-1.1-1.4c-0.5-0.3-1-0.5-1.7-0.5c-0.9,0-1.7,0.4-2.3,1.1c-0.6,0.7-0.9,1.7-0.9,2.9V21.4
		z"/>
	<path d="M168.7,25.3c0.7,0,1.4-0.2,1.9-0.6c0.5-0.4,0.8-1,0.8-1.6h1c0,0.6-0.2,1.1-0.5,1.6s-0.8,0.9-1.3,1.1
		c-0.6,0.3-1.2,0.4-1.8,0.4c-1.3,0-2.2-0.4-3-1.3c-0.7-0.9-1.1-2-1.1-3.5V21c0-0.9,0.2-1.8,0.5-2.5c0.3-0.7,0.8-1.3,1.4-1.7
		c0.6-0.4,1.3-0.6,2.2-0.6c1,0,1.9,0.3,2.6,0.9c0.7,0.6,1,1.4,1.1,2.5h-1c0-0.7-0.3-1.4-0.8-1.8c-0.5-0.5-1.1-0.7-1.9-0.7
		c-1,0-1.7,0.3-2.2,1s-0.8,1.7-0.8,2.9v0.3c0,1.2,0.3,2.2,0.8,2.9S167.8,25.3,168.7,25.3z"/>
	<path d="M174.4,13.7c0-0.2,0.1-0.4,0.2-0.5c0.1-0.1,0.3-0.2,0.5-0.2c0.2,0,0.4,0.1,0.5,0.2c0.1,0.1,0.2,0.3,0.2,0.5
		s-0.1,0.4-0.2,0.5c-0.1,0.1-0.3,0.2-0.5,0.2c-0.2,0-0.4-0.1-0.5-0.2C174.5,14,174.4,13.9,174.4,13.7z M175.7,26h-1.1v-9.6h1.1V26z"
		/>
	<path d="M182.3,26.2c-0.8,0-1.5-0.2-2.2-0.6c-0.7-0.4-1.2-1-1.5-1.7c-0.4-0.7-0.5-1.5-0.5-2.4v-0.4c0-0.9,0.2-1.7,0.5-2.5
		c0.4-0.7,0.9-1.3,1.5-1.7c0.6-0.4,1.3-0.6,2.1-0.6c1.2,0,2.1,0.4,2.8,1.2c0.7,0.8,1,1.9,1,3.2v0.6H179v0.2c0,1.1,0.3,2,0.9,2.7
		c0.6,0.7,1.4,1.1,2.3,1.1c0.6,0,1.1-0.1,1.5-0.3c0.4-0.2,0.8-0.5,1.2-1l0.7,0.5C184.9,25.6,183.8,26.2,182.3,26.2z M182.1,17.2
		c-0.8,0-1.5,0.3-2,0.9c-0.5,0.6-0.9,1.4-1,2.4h5.7v-0.1c0-0.9-0.3-1.7-0.8-2.2C183.5,17.4,182.9,17.2,182.1,17.2z"/>
	<path d="M189.6,14v2.4h2v0.9h-2v6.4c0,0.5,0.1,0.9,0.3,1.2c0.2,0.3,0.5,0.4,1,0.4c0.2,0,0.5,0,0.9-0.1l0,0.9
		c-0.3,0.1-0.7,0.1-1.1,0.1c-0.7,0-1.3-0.2-1.6-0.6s-0.5-1-0.5-1.9v-6.4h-1.8v-0.9h1.8V14H189.6z"/>
	<path d="M196.8,24.5l2.8-8h1.1l-4.1,11.2l-0.2,0.5c-0.5,1.2-1.3,1.7-2.4,1.7c-0.3,0-0.5,0-0.8-0.1l0-0.9l0.5,0.1
		c0.5,0,0.9-0.1,1.3-0.4c0.3-0.3,0.6-0.7,0.8-1.3l0.5-1.3l-3.6-9.5h1.2L196.8,24.5z"/>
</g>
<g>
	<path d="M124.5,41.9c-0.1,1.8-0.8,3.2-2,4.3c-1.2,1-2.8,1.6-4.7,1.6c-2.1,0-3.8-0.7-5.1-2.2c-1.2-1.4-1.8-3.4-1.8-5.9v-1
		c0-1.6,0.3-3,0.9-4.3c0.6-1.2,1.4-2.2,2.4-2.8c1.1-0.7,2.3-1,3.7-1c1.9,0,3.5,0.5,4.7,1.6s1.9,2.5,2,4.4h-3.4
		c-0.1-1.1-0.4-1.9-0.9-2.3c-0.5-0.5-1.3-0.7-2.4-0.7c-1.1,0-2,0.4-2.6,1.2c-0.6,0.8-0.9,2.1-0.9,3.8v1.3c0,1.8,0.3,3.1,0.8,4
		s1.4,1.3,2.6,1.3c1.1,0,1.9-0.2,2.4-0.7c0.5-0.5,0.8-1.2,0.9-2.3H124.5z"/>
	<path d="M138,40.2h-6.6v4.5h7.8v2.8H128V30.7h11.2v2.8h-7.7v4h6.6V40.2z"/>
	<path d="M156,47.5h-3.4l-6.7-11v11h-3.4V30.7h3.4l6.7,11v-11h3.4V47.5z"/>
	<path d="M172.7,33.5h-5.1v13.9h-3.4V33.5h-5.1v-2.8h13.6V33.5z"/>
	<path d="M182.1,41.3h-2.7v6.1h-3.4V30.7h6.2c2,0,3.5,0.4,4.6,1.3s1.6,2.1,1.6,3.7c0,1.1-0.2,2.1-0.7,2.9c-0.5,0.8-1.2,1.4-2.2,1.8
		l3.6,6.8v0.2h-3.7L182.1,41.3z M179.3,38.5h2.8c0.9,0,1.5-0.2,2-0.7c0.5-0.4,0.7-1,0.7-1.8c0-0.8-0.2-1.4-0.7-1.9s-1.1-0.7-2.1-0.7
		h-2.8V38.5z"/>
	<path d="M202.1,40.2h-6.6v4.5h7.8v2.8h-11.2V30.7h11.2v2.8h-7.7v4h6.6V40.2z"/>
</g>
<g>
	<path d="M121.5,62.1h-6.6v6.8h-3.4V52.2h10.9V55h-7.4v4.3h6.6V62.1z"/>
	<path d="M139.2,60.9c0,1.6-0.3,3.1-0.9,4.3c-0.6,1.2-1.4,2.2-2.5,2.9s-2.3,1-3.7,1c-1.4,0-2.6-0.3-3.7-1c-1.1-0.7-1.9-1.6-2.5-2.9
		c-0.6-1.2-0.9-2.7-0.9-4.3v-0.8c0-1.6,0.3-3.1,0.9-4.3c0.6-1.3,1.4-2.2,2.5-2.9s2.3-1,3.7-1c1.4,0,2.6,0.3,3.7,1s1.9,1.6,2.5,2.9
		c0.6,1.3,0.9,2.7,0.9,4.3V60.9z M135.7,60.2c0-1.8-0.3-3.1-0.9-4c-0.6-0.9-1.5-1.4-2.7-1.4c-1.2,0-2,0.5-2.7,1.4s-0.9,2.2-1,4v0.8
		c0,1.7,0.3,3,0.9,4c0.6,0.9,1.5,1.4,2.7,1.4c1.2,0,2-0.5,2.7-1.4c0.6-0.9,0.9-2.2,0.9-4V60.2z"/>
	<path d="M149.1,62.8h-2.7v6.1h-3.4V52.2h6.2c2,0,3.5,0.4,4.6,1.3s1.6,2.1,1.6,3.7c0,1.1-0.2,2.1-0.7,2.9c-0.5,0.8-1.2,1.4-2.2,1.8
		l3.6,6.8v0.2h-3.7L149.1,62.8z M146.3,60h2.8c0.9,0,1.5-0.2,2-0.7c0.5-0.4,0.7-1,0.7-1.8c0-0.8-0.2-1.4-0.7-1.9S150,55,149.1,55
		h-2.8V60z"/>
	<path d="M166,68.9V52.2h5.1c1.5,0,2.8,0.3,3.9,1c1.2,0.7,2.1,1.6,2.7,2.8s1,2.6,1,4.2v0.8c0,1.6-0.3,2.9-1,4.1s-1.5,2.1-2.7,2.8
		c-1.2,0.7-2.5,1-3.9,1H166z M169.5,55v11.2h1.7c1.3,0,2.4-0.4,3.1-1.3c0.7-0.9,1.1-2.1,1.1-3.8v-0.9c0-1.7-0.4-3-1.1-3.9
		c-0.7-0.9-1.7-1.3-3.1-1.3H169.5z"/>
	<path d="M186.2,68.9h-3.4V52.2h3.4V68.9z"/>
	<path d="M203.7,66.8c-0.6,0.7-1.5,1.3-2.6,1.7c-1.1,0.4-2.4,0.6-3.8,0.6c-1.4,0-2.7-0.3-3.8-0.9c-1.1-0.6-1.9-1.5-2.5-2.8
		c-0.6-1.2-0.9-2.6-0.9-4.2v-1.1c0-1.7,0.3-3.1,0.8-4.3c0.6-1.2,1.4-2.2,2.4-2.8c1.1-0.6,2.3-1,3.7-1c2,0,3.5,0.5,4.7,1.4
		c1.1,0.9,1.8,2.3,2,4.1h-3.4c-0.2-1-0.5-1.7-1-2.1s-1.2-0.7-2.2-0.7c-1.2,0-2.1,0.4-2.7,1.3c-0.6,0.9-0.9,2.2-0.9,3.9v1.1
		c0,1.8,0.3,3.1,1,4c0.7,0.9,1.6,1.3,2.9,1.3c1.3,0,2.2-0.3,2.8-0.8v-2.9h-3.1v-2.5h6.6V66.8z"/>
	<path d="M211.4,68.9h-3.4V52.2h3.4V68.9z"/>
	<path d="M228.3,55h-5.1v13.9h-3.4V55h-5.1v-2.8h13.6V55z"/>
	<path d="M240.9,65.5h-6l-1.1,3.4H230l6.2-16.7h3.2l6.3,16.7H242L240.9,65.5z M235.8,62.7h4.2l-2.1-6.3L235.8,62.7z"/>
	<path d="M251.9,66.1h7.3v2.8h-10.8V52.2h3.4V66.1z"/>
</g>
<g>
	<path d="M117.6,84.2h-2.7v6.1h-3.4V73.6h6.2c2,0,3.5,0.4,4.6,1.3s1.6,2.1,1.6,3.7c0,1.1-0.2,2.1-0.7,2.9c-0.5,0.8-1.2,1.4-2.2,1.8
		l3.6,6.8v0.2h-3.7L117.6,84.2z M114.8,81.5h2.8c0.9,0,1.5-0.2,2-0.7c0.5-0.4,0.7-1,0.7-1.8c0-0.8-0.2-1.4-0.7-1.9s-1.1-0.7-2.1-0.7
		h-2.8V81.5z"/>
	<path d="M137.7,83.1H131v4.5h7.8v2.8h-11.2V73.6h11.2v2.8H131v4h6.6V83.1z"/>
	<path d="M150.7,86c0-0.7-0.2-1.2-0.7-1.5s-1.3-0.7-2.5-1.1c-1.2-0.4-2.1-0.8-2.8-1.1c-1.9-1-2.8-2.4-2.8-4.1c0-0.9,0.3-1.7,0.8-2.4
		c0.5-0.7,1.2-1.3,2.2-1.7s2-0.6,3.2-0.6c1.2,0,2.3,0.2,3.2,0.6s1.7,1,2.2,1.8c0.5,0.8,0.8,1.7,0.8,2.7h-3.4c0-0.8-0.2-1.4-0.7-1.8
		c-0.5-0.4-1.2-0.6-2-0.6c-0.8,0-1.5,0.2-2,0.5c-0.5,0.4-0.7,0.8-0.7,1.4c0,0.5,0.3,1,0.8,1.4c0.5,0.4,1.4,0.7,2.4,1
		c2,0.6,3.4,1.3,4.3,2.2c0.9,0.9,1.3,2,1.3,3.3c0,1.4-0.5,2.6-1.6,3.4c-1.1,0.8-2.6,1.2-4.4,1.2c-1.3,0-2.5-0.2-3.5-0.7
		c-1.1-0.5-1.9-1.1-2.4-1.9c-0.6-0.8-0.8-1.8-0.8-2.8h3.5c0,1.8,1.1,2.8,3.3,2.8c0.8,0,1.5-0.2,1.9-0.5S150.7,86.6,150.7,86z"/>
	<path d="M161.3,90.4h-3.4V73.6h3.4V90.4z"/>
	<path d="M169.1,87.6h7.3v2.8h-10.8V73.6h3.4V87.6z"/>
	<path d="M183.2,90.4h-3.4V73.6h3.4V90.4z"/>
	<path d="M197.7,83.1H191v4.5h7.8v2.8h-11.2V73.6h11.2v2.8H191v4h6.6V83.1z"/>
	<path d="M215.6,90.4h-3.4l-6.7-11v11H202V73.6h3.4l6.7,11v-11h3.4V90.4z"/>
	<path d="M232.9,84.8c-0.1,1.8-0.8,3.2-2,4.3c-1.2,1-2.8,1.6-4.7,1.6c-2.1,0-3.8-0.7-5.1-2.2c-1.2-1.4-1.8-3.4-1.8-5.9v-1
		c0-1.6,0.3-3,0.9-4.3c0.6-1.2,1.4-2.2,2.4-2.8c1.1-0.7,2.3-1,3.7-1c1.9,0,3.5,0.5,4.7,1.6s1.9,2.5,2,4.4h-3.4
		c-0.1-1.1-0.4-1.9-0.9-2.3c-0.5-0.5-1.3-0.7-2.4-0.7c-1.1,0-2,0.4-2.6,1.2c-0.6,0.8-0.9,2.1-0.9,3.8v1.3c0,1.8,0.3,3.1,0.8,4
		s1.4,1.3,2.6,1.3c1.1,0,1.9-0.2,2.4-0.7c0.5-0.5,0.8-1.2,0.9-2.3H232.9z"/>
	<path d="M246.4,83.1h-6.6v4.5h7.8v2.8h-11.2V73.6h11.2v2.8h-7.7v4h6.6V83.1z"/>
</g>
<g>
	<polygon class="st0" points="12.5,93.2 32.9,11.1 94.5,72.7 	"/>
	<polyline class="st0" points="33,52.2 94.5,72.7 74,31.8 32.9,11.1 33,52.2 12.5,93.2 	"/>
</g>
<rect x="-277" y="-176" class="st1" width="841.9" height="595.3"/>
</svg>
